<?xml version="1.0" encoding="UTF-8"?>
<svg id="caseArticles" height="100" width="100" viewBox="0 0 100 100" xmlns="http://www.w3.org/2000/svg">
  <!-- Background -->
  <rect width="100" height="100" fill="rgb(201,104,249)" rx="8"/>
  
  <!-- Case Articles Icon - scaled and centered -->
  <g transform="translate(15, 15) scale(0.135)">
    <path fill="#ffffff" d="M95 350h130c8 0 15-7 15-15V100c0-17-18-30-32-30H95c-8 0-15 7-15 15v250c0 8 7 15 15 15zm397-234c-6-2-12 3-12 10v249c0 8-7 15-15 15H55c-8 0-15-7-15-15V127c0-7-8-12-14-9a46 46 0 0 0-26 42v230a40 40 0 0 0 40 40h165c8 0 15 7 15 15s7 15 15 15h50c8 0 15-7 15-15s7-15 15-15h165a40 40 0 0 0 40-40V160c0-21-7-39-28-44zM295 350h130c8 0 15-7 15-15V85c0-8-7-15-15-15H312c-15 0-32 13-32 30v235c0 8 7 15 15 15z"/>
  </g>
</svg>